<?xml version="1.0" encoding="utf-8"?>
<!-- Generator: Adobe Illustrator 19.0.0, SVG Export Plug-In . SVG Version: 6.00 Build 0)  -->
<svg version="1.0" id="Layer_1" xmlns="http://www.w3.org/2000/svg" xmlns:xlink="http://www.w3.org/1999/xlink" x="0px" y="0px"
	 width="1400px" height="980px" viewBox="0 0 1400 980" enable-background="new 0 0 1400 980" xml:space="preserve">
<rect id="XMLID_4_" x="23" y="21.9" fill="#6AB3B5" width="1350" height="935.7"/>
<rect id="XMLID_21_" x="51" y="43" fill="#F1F2F2" width="462" height="346"/>
<rect id="XMLID_76_" x="538.5" y="43" fill="#F1F2F2" width="812.2" height="346"/>
<rect id="XMLID_23_" x="51" y="413.6" fill="#F1F2F2" width="462" height="513.9"/>
<rect id="XMLID_136_" x="538.5" y="413.6" fill="#F1F2F2" width="393.3" height="513.9"/>
<rect id="XMLID_137_" x="957.4" y="413.6" fill="#F1F2F2" width="393.3" height="513.9"/>
<g id="XMLID_22_">
	<path id="XMLID_11_" fill="#8D3131" d="M366.1,144.5c-20.1-24.9-50.9-40.8-85.4-40.8c-34.4,0-65.1,15.8-85.2,40.6
		c-15.4,18.9-24.6,43-24.6,69.2c0,60.6,49.1,109.8,109.8,109.8c27.5,0,52.6-10.1,71.9-26.8c23.2-20.1,37.9-49.8,37.9-82.9
		C390.4,187.3,381.3,163.3,366.1,144.5z M339.3,281c-15.7,13.6-36.2,21.9-58.6,21.9c-49.4,0-89.4-40-89.4-89.4
		c0-21.4,7.5-41,20-56.4c16.4-20.2,41.4-33.1,69.4-33.1c28.1,0,53.2,13,69.6,33.2c12.4,15.4,19.9,34.9,19.9,56.2
		C370.1,240.4,358.1,264.6,339.3,281z"/>
	<path id="XMLID_9_" fill="#FBB040" d="M280.7,103.6V124c-28,0-53,12.9-69.4,33.1l-15.8-12.8C215.6,119.5,246.3,103.6,280.7,103.6z"
		/>
	<path id="XMLID_10_" fill="#3E7B7D" d="M366.1,144.5l-15.8,12.8C333.9,137,308.8,124,280.7,124v-20.4
		C315.2,103.6,346,119.6,366.1,144.5z"/>
	<path id="XMLID_12_" fill="#E04D4D" d="M390.4,213.4c0,33.1-14.7,62.8-37.9,82.9L339.3,281c18.9-16.4,30.8-40.6,30.8-67.6
		c0-21.3-7.4-40.8-19.9-56.2l15.8-12.8C381.3,163.3,390.4,187.3,390.4,213.4z"/>
	<g id="XMLID_2_">
		<circle id="XMLID_3_" fill="#414042" cx="278.3" cy="173.4" r="16.5"/>
		<polygon id="XMLID_6_" fill="#414042" points="298.5,192 285.6,188.2 278.3,188.2 271,188.2 258,192 254.9,230.1 260.9,230.1 
			264.3,208.7 264.3,270 273.2,270 278.3,234.4 283.4,270 292.3,270 292.3,208.7 295.7,230.1 301.7,230.1 		"/>
	</g>
	<polygon id="XMLID_7_" fill="#FBB040" points="198,100.1 216.2,114.2 216.4,100.1 	"/>
	<path id="XMLID_15_" fill="#E04D4D" d="M413.5,233.4h27.6c3.6,0,6.5-2.9,6.5-6.5v-22.3c0-3.6-2.9-6.5-6.5-6.5h-27.6
		c-3.6,0-6.5,2.9-6.5,6.5v22.3C407,230.5,409.9,233.4,413.5,233.4z"/>
	<path id="XMLID_5_" fill="#3E7B7D" d="M340.3,102.3h27.6c3.6,0,6.5-2.9,6.5-6.5V73.4c0-3.6-2.9-6.5-6.5-6.5h-27.6
		c-3.6,0-6.5,2.9-6.5,6.5v22.3C333.8,99.3,336.8,102.3,340.3,102.3z"/>
	<path id="XMLID_13_" fill="#FBB040" d="M193.4,102.3H221c3.6,0,6.5-2.9,6.5-6.5V73.4c0-3.6-2.9-6.5-6.5-6.5h-27.6
		c-3.6,0-6.5,2.9-6.5,6.5v22.3C186.9,99.3,189.9,102.3,193.4,102.3z"/>
	<polygon id="XMLID_8_" fill="#3E7B7D" points="363.3,100.1 345.1,114.2 344.9,100.1 	"/>
	<polygon id="XMLID_16_" fill="#E04D4D" points="410.4,209.6 394.8,221.4 410.4,221.4 	"/>
	<path id="XMLID_20_" fill="#8D3131" d="M141.5,233.4h-27.6c-3.6,0-6.5-2.9-6.5-6.5v-22.3c0-3.6,2.9-6.5,6.5-6.5h27.6
		c3.6,0,6.5,2.9,6.5,6.5v22.3C147.9,230.5,145,233.4,141.5,233.4z"/>
	<polygon id="XMLID_18_" fill="#8D3131" points="144.6,209.6 160.1,221.4 144.6,221.4 	"/>
	<path id="XMLID_69_" fill="#8D3131" d="M105.9,369.6h-4.5l-0.1-0.6v0.6H84.8V369l-0.1,0.6h-4.5l0.9-10.5l7.7-2.3h0
		c-3.3-1.6-5.5-4.9-5.5-8.8c0-5.4,4.4-9.8,9.8-9.8c5.4,0,9.8,4.4,9.8,9.8c0,3.9-2.2,7.2-5.5,8.8l7.7,2.3L105.9,369.6z"/>
	<polyline id="XMLID_67_" fill="none" points="90.5,354 93.2,354 93.3,354 103.1,354 103.2,354 105.9,354 	"/>
	<text id="XMLID_54_" transform="matrix(1 0 0 1 118.6177 360.8774)" font-family="'Arial-BoldMT'" font-size="11.2996px">People A</text>
	<path id="XMLID_68_" fill="#FBB040" d="M214.9,369.6h-4.5l-0.1-0.6v0.6h-16.5V369l-0.1,0.6h-4.5l0.9-10.5l7.7-2.3h0
		c-3.3-1.6-5.5-4.9-5.5-8.8c0-5.4,4.4-9.8,9.8-9.8c5.4,0,9.8,4.4,9.8,9.8c0,3.9-2.2,7.2-5.5,8.8l7.7,2.3L214.9,369.6z"/>
	<polyline id="XMLID_66_" fill="none" points="199.6,354 202.3,354 202.3,354 212.2,354 212.3,354 214.9,354 	"/>
	<text id="XMLID_65_" transform="matrix(1 0 0 1 227.6753 360.8774)" font-family="'Arial-BoldMT'" font-size="11.2996px">People B</text>
	<path id="XMLID_72_" fill="#3E7B7D" d="M324,369.6h-4.5l-0.1-0.6v0.6h-16.5V369l-0.1,0.6h-4.5l0.9-10.5l7.7-2.3h0
		c-3.3-1.6-5.5-4.9-5.5-8.8c0-5.4,4.4-9.8,9.8-9.8c5.4,0,9.8,4.4,9.8,9.8c0,3.9-2.2,7.2-5.5,8.8l7.7,2.3L324,369.6z"/>
	<polyline id="XMLID_71_" fill="none" points="308.7,354 311.3,354 311.4,354 321.3,354 321.3,354 324,354 	"/>
	<text id="XMLID_70_" transform="matrix(1 0 0 1 336.7329 360.8774)" font-family="'Arial-BoldMT'" font-size="11.2996px">People C</text>
	<path id="XMLID_75_" fill="#E04D4D" d="M433.1,369.6h-4.5l-0.1-0.6v0.6h-16.5V369l-0.1,0.6h-4.5l0.9-10.5l7.7-2.3h0
		c-3.3-1.6-5.5-4.9-5.5-8.8c0-5.4,4.4-9.8,9.8-9.8c5.4,0,9.8,4.4,9.8,9.8c0,3.9-2.2,7.2-5.5,8.8l7.7,2.3L433.1,369.6z"/>
	<polyline id="XMLID_74_" fill="none" points="417.7,354 420.4,354 420.5,354 430.3,354 430.4,354 433.1,354 	"/>
	<text id="XMLID_73_" transform="matrix(1 0 0 1 445.7905 360.8774)" font-family="'Arial-BoldMT'" font-size="11.2996px">People D</text>
</g>
<g id="XMLID_284_">
	<circle id="XMLID_27_" fill="#5F2121" cx="160.5" cy="811.7" r="10"/>
	<text id="XMLID_28_" transform="matrix(1 0 0 1 184.6667 815.673)" font-family="'Arial-BoldMT'" font-size="12px">Sample 01</text>
	<circle id="XMLID_31_" fill="#7E2C2C" cx="160.5" cy="849" r="10"/>
	<text id="XMLID_30_" transform="matrix(1 0 0 1 184.6667 853.0063)" font-family="'Arial-BoldMT'" font-size="12px">Sample 02</text>
	<circle id="XMLID_33_" fill="#9C3637" cx="160.5" cy="886.3" r="10"/>
	<text id="XMLID_32_" transform="matrix(1 0 0 1 184.6667 890.3397)" font-family="'Arial-BoldMT'" font-size="12px">Sample 03</text>
	<circle id="XMLID_51_" fill="#B13E3F" cx="324.7" cy="811.7" r="10"/>
	<text id="XMLID_40_" transform="matrix(1 0 0 1 348.9075 815.673)" font-family="'Arial-BoldMT'" font-size="12px">Sample 04</text>
	<circle id="XMLID_39_" fill="#CF4949" cx="324.7" cy="849" r="10"/>
	<text id="XMLID_36_" transform="matrix(1 0 0 1 348.9075 853.0063)" font-family="'Arial-BoldMT'" font-size="12px">Sample 05</text>
	<circle id="XMLID_35_" fill="#EA5353" cx="324.7" cy="886.3" r="10"/>
	<text id="XMLID_34_" transform="matrix(1 0 0 1 348.9075 890.3397)" font-family="'Arial-BoldMT'" font-size="12px">Sample 06</text>
</g>
<g id="XMLID_286_">
	<path id="XMLID_29_" fill="#FBB040" d="M366.7,480H202.9c-5.5,0-9.9-4.4-9.9-9.9v-6.2c0-5.5,4.4-9.9,9.9-9.9h163.7
		c5.5,0,9.9,4.4,9.9,9.9v6.2C376.6,475.6,372.1,480,366.7,480z"/>
	
		<text id="XMLID_53_" transform="matrix(1 0 0 1 242.2877 472.5166)" fill="#FFFFFF" font-family="'Arial-BoldMT'" font-size="16.5998px">TITLE HERE</text>
</g>
<g id="XMLID_296_">
	<path id="XMLID_158_" fill="#E04D4D" d="M1027.4,99.6H863.7c-5.5,0-9.9-4.4-9.9-9.9v-6.2c0-5.5,4.4-9.9,9.9-9.9h163.7
		c5.5,0,9.9,4.4,9.9,9.9v6.2C1037.4,95.2,1032.9,99.6,1027.4,99.6z"/>
	
		<text id="XMLID_147_" transform="matrix(1 0 0 1 903.0623 92.1633)" fill="#FFFFFF" font-family="'Arial-BoldMT'" font-size="16.5998px">TITLE HERE</text>
</g>
<g id="XMLID_285_">
	<rect id="XMLID_24_" x="91" y="509.5" fill="#8D3131" width="5" height="232"/>
	<rect id="XMLID_25_" x="91" y="736.5" fill="#8D3131" width="381" height="5"/>
	<rect id="XMLID_26_" x="125" y="698.7" fill="#5F2121" width="51" height="37.8"/>
	<rect id="XMLID_38_" x="202.8" y="698.7" fill="#5F2121" width="51" height="37.8"/>
	<rect id="XMLID_37_" x="202.8" y="660.8" fill="#7E2C2C" width="51" height="37.8"/>
	<rect id="XMLID_44_" x="280.6" y="698.7" fill="#5F2121" width="51" height="37.8"/>
	<rect id="XMLID_43_" x="280.6" y="660.8" fill="#7E2C2C" width="51" height="37.8"/>
	<rect id="XMLID_42_" x="280.6" y="623" fill="#9C3637" width="51" height="37.8"/>
	<rect id="XMLID_41_" x="280.6" y="585.2" fill="#B13E3F" width="51" height="37.8"/>
	<rect id="XMLID_50_" x="358.4" y="698.7" fill="#5F2121" width="51" height="37.8"/>
	<rect id="XMLID_49_" x="358.4" y="660.8" fill="#7E2C2C" width="51" height="37.8"/>
	<rect id="XMLID_48_" x="358.4" y="623" fill="#9C3637" width="51" height="37.8"/>
	<rect id="XMLID_47_" x="358.4" y="585.2" fill="#B13E3F" width="51" height="37.8"/>
	<rect id="XMLID_46_" x="358.4" y="547.3" fill="#CF4949" width="51" height="37.8"/>
	<rect id="XMLID_45_" x="358.4" y="509.5" fill="#EA5353" width="51" height="37.8"/>
	<text id="XMLID_60_" transform="matrix(1 0 0 1 133.0052 761.0063)" font-family="'Arial-BoldMT'" font-size="12px">Year 01</text>
	<text id="XMLID_61_" transform="matrix(1 0 0 1 210.0052 761.0063)" font-family="'Arial-BoldMT'" font-size="12px">Year 02</text>
	<text id="XMLID_62_" transform="matrix(1 0 0 1 287.0052 761.0063)" font-family="'Arial-BoldMT'" font-size="12px">Year 03</text>
	<text id="XMLID_63_" transform="matrix(1 0 0 1 364.0052 761.0063)" font-family="'Arial-BoldMT'" font-size="12px">Year 04</text>
	<rect id="XMLID_52_" x="87.7" y="697.3" fill="#8D3131" width="11.7" height="4.7"/>
	<rect id="XMLID_55_" x="87.7" y="658.5" fill="#8D3131" width="11.7" height="4.7"/>
	<rect id="XMLID_56_" x="87.7" y="620.7" fill="#8D3131" width="11.7" height="4.7"/>
	<rect id="XMLID_57_" x="87.7" y="582.8" fill="#8D3131" width="11.7" height="4.7"/>
	<rect id="XMLID_58_" x="87.7" y="545" fill="#8D3131" width="11.7" height="4.7"/>
	<rect id="XMLID_59_" x="87.7" y="509.5" fill="#8D3131" width="11.7" height="4.7"/>
</g>
<g id="XMLID_293_">
	<g id="XMLID_78_">
		<g id="XMLID_80_">
			<line id="XMLID_83_" fill="none" stroke="#939598" stroke-miterlimit="10" x1="604" y1="145" x2="606.5" y2="145"/>
			
				<line id="XMLID_82_" fill="none" stroke="#939598" stroke-miterlimit="10" stroke-dasharray="4.9784,4.9784" x1="611.5" y1="145" x2="1296" y2="145"/>
			<line id="XMLID_81_" fill="none" stroke="#939598" stroke-miterlimit="10" x1="1298.5" y1="145" x2="1301" y2="145"/>
		</g>
	</g>
	<g id="XMLID_84_">
		<g id="XMLID_91_">
			<line id="XMLID_94_" fill="none" stroke="#939598" stroke-miterlimit="10" x1="604" y1="179.8" x2="606.5" y2="179.8"/>
			
				<line id="XMLID_93_" fill="none" stroke="#939598" stroke-miterlimit="10" stroke-dasharray="4.9784,4.9784" x1="611.5" y1="179.8" x2="1296" y2="179.8"/>
			<line id="XMLID_92_" fill="none" stroke="#939598" stroke-miterlimit="10" x1="1298.5" y1="179.8" x2="1301" y2="179.8"/>
		</g>
	</g>
	<g id="XMLID_95_">
		<g id="XMLID_97_">
			<line id="XMLID_100_" fill="none" stroke="#939598" stroke-miterlimit="10" x1="604" y1="214.5" x2="606.5" y2="214.5"/>
			
				<line id="XMLID_99_" fill="none" stroke="#939598" stroke-miterlimit="10" stroke-dasharray="4.9784,4.9784" x1="611.5" y1="214.5" x2="1296" y2="214.5"/>
			<line id="XMLID_98_" fill="none" stroke="#939598" stroke-miterlimit="10" x1="1298.5" y1="214.5" x2="1301" y2="214.5"/>
		</g>
	</g>
	<g id="XMLID_101_">
		<g id="XMLID_103_">
			<line id="XMLID_106_" fill="none" stroke="#939598" stroke-miterlimit="10" x1="604" y1="249.3" x2="606.5" y2="249.3"/>
			
				<line id="XMLID_105_" fill="none" stroke="#939598" stroke-miterlimit="10" stroke-dasharray="4.9784,4.9784" x1="611.5" y1="249.3" x2="1296" y2="249.3"/>
			<line id="XMLID_104_" fill="none" stroke="#939598" stroke-miterlimit="10" x1="1298.5" y1="249.3" x2="1301" y2="249.3"/>
		</g>
	</g>
	<g id="XMLID_107_">
		<g id="XMLID_109_">
			<line id="XMLID_112_" fill="none" stroke="#939598" stroke-miterlimit="10" x1="604" y1="284.1" x2="606.5" y2="284.1"/>
			
				<line id="XMLID_111_" fill="none" stroke="#939598" stroke-miterlimit="10" stroke-dasharray="4.9784,4.9784" x1="611.5" y1="284.1" x2="1296" y2="284.1"/>
			<line id="XMLID_110_" fill="none" stroke="#939598" stroke-miterlimit="10" x1="1298.5" y1="284.1" x2="1301" y2="284.1"/>
		</g>
	</g>
	<rect id="XMLID_64_" x="604" y="318.6" fill="#8D3131" width="697" height="4.2"/>
	<rect id="XMLID_114_" x="604" y="118.1" fill="#8D3131" width="4.2" height="204.7"/>
	<text id="XMLID_113_" transform="matrix(1 0 0 1 590.6675 324.8239)" font-family="'Arial-BoldMT'" font-size="13px">0</text>
	<text id="XMLID_116_" transform="matrix(1 0 0 1 583.2119 288.1572)" font-family="'Arial-BoldMT'" font-size="13px">20</text>
	<g id="XMLID_87_">
		<text id="XMLID_189_" transform="matrix(1 0 0 1 656.2197 339.4529)" font-family="'Arial-BoldMT'" font-size="13px">01</text>
	</g>
	<g id="XMLID_88_">
		<text id="XMLID_192_" transform="matrix(1 0 0 1 722.8892 339.4529)" font-family="'Arial-BoldMT'" font-size="13px">02</text>
	</g>
	<g id="XMLID_89_">
		<text id="XMLID_196_" transform="matrix(1 0 0 1 789.5601 339.4529)" font-family="'Arial-BoldMT'" font-size="13px">03</text>
	</g>
	<g id="XMLID_90_">
		<text id="XMLID_198_" transform="matrix(1 0 0 1 856.23 339.4529)" font-family="'Arial-BoldMT'" font-size="13px">04</text>
	</g>
	<g id="XMLID_115_">
		<text id="XMLID_200_" transform="matrix(1 0 0 1 922.9 339.4529)" font-family="'Arial-BoldMT'" font-size="13px">05</text>
	</g>
	<g id="XMLID_121_">
		<text id="XMLID_202_" transform="matrix(1 0 0 1 989.5698 339.4529)" font-family="'Arial-BoldMT'" font-size="13px">06</text>
	</g>
	<g id="XMLID_122_">
		<text id="XMLID_204_" transform="matrix(1 0 0 1 1056.2397 339.4529)" font-family="'Arial-BoldMT'" font-size="13px">07</text>
	</g>
	<g id="XMLID_123_">
		<text id="XMLID_209_" transform="matrix(1 0 0 1 1122.9097 339.4529)" font-family="'Arial-BoldMT'" font-size="13px">08</text>
	</g>
	<g id="XMLID_124_">
		<text id="XMLID_213_" transform="matrix(1 0 0 1 1189.5795 339.4529)" font-family="'Arial-BoldMT'" font-size="13px">09</text>
	</g>
	<g id="XMLID_125_">
		<text id="XMLID_216_" transform="matrix(1 0 0 1 1256.2495 339.4529)" font-family="'Arial-BoldMT'" font-size="13px">10</text>
	</g>
	<text id="XMLID_117_" transform="matrix(1 0 0 1 583.2119 254.1572)" font-family="'Arial-BoldMT'" font-size="13px">40</text>
	<text id="XMLID_118_" transform="matrix(1 0 0 1 583.2119 220.1572)" font-family="'Arial-BoldMT'" font-size="13px">60</text>
	<text id="XMLID_119_" transform="matrix(1 0 0 1 583.2119 186.1572)" font-family="'Arial-BoldMT'" font-size="13px">80</text>
	<text id="XMLID_120_" transform="matrix(1 0 0 1 575.9819 150.1559)" font-family="'Arial-BoldMT'" font-size="13px">100</text>
	<g id="XMLID_135_">
		<polygon id="XMLID_146_" fill="#3E7B7D" points="664.3,286.8 662.4,283.2 729.5,247.3 796.2,247.3 863.4,211.7 929.6,246.8 
			996.3,177.3 1063.9,212 1129.6,212 1195.8,178 1269.9,143.2 1271.6,146.8 1197.6,181.6 1130.5,216 1062.9,216 997.1,182.2 
			930.4,251.8 863.4,216.3 797.2,251.3 730.5,251.3 		"/>
	</g>
	<circle id="XMLID_77_" fill="#E04D4D" cx="663.3" cy="285" r="7.3"/>
	<circle id="XMLID_126_" fill="#E04D4D" cx="730" cy="249.3" r="7.3"/>
	<circle id="XMLID_127_" fill="#E04D4D" cx="796.7" cy="249.3" r="7.3"/>
	<circle id="XMLID_128_" fill="#E04D4D" cx="863.4" cy="214" r="7.3"/>
	<circle id="XMLID_129_" fill="#E04D4D" cx="930" cy="249.3" r="7.3"/>
	<circle id="XMLID_130_" fill="#E04D4D" cx="996.7" cy="179.8" r="7.3"/>
	<circle id="XMLID_131_" fill="#E04D4D" cx="1063.4" cy="214" r="7.3"/>
	<circle id="XMLID_132_" fill="#E04D4D" cx="1130" cy="214" r="7.3"/>
	<circle id="XMLID_133_" fill="#E04D4D" cx="1196.7" cy="179.8" r="7.3"/>
	<circle id="XMLID_134_" fill="#E04D4D" cx="1270.7" cy="145" r="7.3"/>
</g>
<g id="XMLID_280_">
	<circle id="XMLID_160_" fill="#E04D4D" cx="655.6" cy="513.5" r="65"/>
	<path id="XMLID_145_" fill="#8D3131" d="M655.6,448.5v65h-65C590.7,477.6,619.8,448.5,655.6,448.5z"/>
	<g id="XMLID_138_">
		
			<text id="XMLID_220_" transform="matrix(1 0 0 1 611.7124 492.9766)" fill="#FFFFFF" font-family="'Arial-BoldMT'" font-size="15.7667px">25%</text>
	</g>
	<g id="XMLID_139_">
		
			<text id="XMLID_254_" transform="matrix(1 0 0 1 661.2793 535.2861)" fill="#FFFFFF" font-family="'Arial-BoldMT'" font-size="18.5654px">75%</text>
	</g>
</g>
<g id="XMLID_264_">
	<path id="XMLID_176_" fill="#FBB040" d="M881.6,513.5c0,4.8-0.5,9.5-1.5,14c-6.4,29.2-32.4,51-63.5,51c-35.9,0-65-29.1-65-65
		c0-35.9,29.1-65,65-65c17.6,0,33.5,7,45.2,18.3C874,478.6,881.6,495.2,881.6,513.5z"/>
	<g id="XMLID_141_">
		
			<text id="XMLID_256_" transform="matrix(1 0 0 1 792.5652 538.6894)" fill="#FFFFFF" font-family="'Arial-BoldMT'" font-size="18.5654px">70%</text>
	</g>
	<path id="XMLID_173_" fill="#CB832A" d="M881.6,513.5c0,4.8-0.5,9.5-1.5,14L816.6,512v-63.5c17.6,0,33.5,7,45.2,18.3
		C874,478.6,881.6,495.2,881.6,513.5z"/>
	<g id="XMLID_140_">
		
			<text id="XMLID_258_" transform="matrix(1 0 0 1 828.0905 496.3799)" fill="#FFFFFF" font-family="'Arial-BoldMT'" font-size="15.7667px">30%</text>
	</g>
</g>
<g id="XMLID_281_">
	<circle id="XMLID_185_" fill="#3E7B7D" cx="655.6" cy="664.8" r="65"/>
	<path id="XMLID_179_" fill="#FBB040" d="M720.6,664.8c0,35.9-29.1,65-65,65v-130C691.5,599.8,720.6,628.9,720.6,664.8z"/>
	<g id="XMLID_143_">
		
			<text id="XMLID_260_" transform="matrix(1 0 0 1 609.915 670.041)" fill="#FFFFFF" font-family="'Arial-BoldMT'" font-size="18.5654px">50%</text>
	</g>
	<g id="XMLID_144_">
		
			<text id="XMLID_262_" transform="matrix(1 0 0 1 664.373 670.041)" fill="#FFFFFF" font-family="'Arial-BoldMT'" font-size="18.5654px">50%</text>
	</g>
</g>
<g id="XMLID_250_">
	<path id="XMLID_190_" fill="#8D3131" d="M881.6,664.8c0,4.8-0.5,9.5-1.5,14c-6.4,29.2-32.4,51-63.5,51c-17.9,0-34.2-7.3-45.9-19
		c-11.8-11.8-19-28-19-45.9c0-35.9,29.1-65,65-65c17.6,0,33.5,7,45.2,18.3C874,629.9,881.6,646.5,881.6,664.8z"/>
	<path id="XMLID_186_" fill="#FBB040" d="M816.6,664.8v65c-17.9,0-34.2-7.3-45.9-19L816.6,664.8z"/>
	<g id="XMLID_142_">
		
			<text id="XMLID_269_" transform="matrix(1 0 0 1 781.4597 714.1777)" fill="#FFFFFF" font-family="'Arial-BoldMT'" font-size="15.6048px">12%</text>
	</g>
	<g id="XMLID_159_">
		
			<text id="XMLID_270_" transform="matrix(1 0 0 1 801.5378 649.3857)" fill="#FFFFFF" font-family="'Arial-BoldMT'" font-size="19.4477px">88%</text>
	</g>
</g>
<g id="XMLID_283_">
	<path id="XMLID_193_" fill="#234445" d="M720.6,815.7c0,23.5-12.4,44-31.1,55.4c-9.9,6-21.5,9.5-33.9,9.5c-35.9,0-65-29.1-65-65
		c0-35.9,29.1-65,65-65C691.5,750.7,720.6,779.8,720.6,815.7z"/>
	<path id="XMLID_182_" fill="#3E7B7D" d="M720.6,815.7c0,23.5-12.4,44-31.1,55.4l-33.9-55.4v-65
		C691.5,750.7,720.6,779.8,720.6,815.7z"/>
	<g id="XMLID_172_">
		
			<text id="XMLID_272_" transform="matrix(1 0 0 1 666.5804 814.6748)" fill="#FFFFFF" font-family="'Arial-BoldMT'" font-size="18.5654px">45%</text>
	</g>
	<g id="XMLID_174_">
		
			<text id="XMLID_274_" transform="matrix(1 0 0 1 609.9149 827.3415)" fill="#FFFFFF" font-family="'Arial-BoldMT'" font-size="18.5654px">55%</text>
	</g>
</g>
<g id="XMLID_249_">
	<path id="XMLID_206_" fill="#FBB040" d="M881.6,815.7c0,4.8-0.5,9.5-1.5,14c-2.5,11.6-8.2,22.1-16.1,30.5
		c-11.8,12.6-28.7,20.5-47.4,20.5c-18,0-34.2-7.3-46-19c-11.8-11.8-19-28-19-46c0-35.9,29.1-65,65-65c17.6,0,33.5,7,45.2,18.3
		C874,780.8,881.6,797.3,881.6,815.7z"/>
	<g id="XMLID_171_">
		
			<text id="XMLID_276_" transform="matrix(1 0 0 1 772.3867 805.0439)" fill="#FFFFFF" font-family="'Arial-BoldMT'" font-size="20.1377px">85%</text>
	</g>
	<path id="XMLID_194_" fill="#3E7B7D" d="M864,860.1c-11.8,12.6-28.7,20.5-47.4,20.5v-65L864,860.1z"/>
	<g id="XMLID_175_">
		
			<text id="XMLID_278_" transform="matrix(1 0 0 1 817.8934 859.511)" fill="#FFFFFF" font-family="'Arial-BoldMT'" font-size="15.6048px">15%</text>
	</g>
</g>
<g id="XMLID_248_">
	<g id="XMLID_218_">
		<text id="XMLID_282_" transform="matrix(1 0 0 1 998.1852 786.1252)" font-family="'Arial-BoldMT'" font-size="11.2996px">Category 01</text>
	</g>
	<g id="XMLID_219_">
		<text id="XMLID_288_" transform="matrix(1 0 0 1 998.1852 753.8752)" font-family="'Arial-BoldMT'" font-size="11.2996px">Category 01</text>
	</g>
	<g id="XMLID_221_">
		<text id="XMLID_290_" transform="matrix(1 0 0 1 998.1852 721.6252)" font-family="'Arial-BoldMT'" font-size="11.2996px">Category 02</text>
	</g>
	<g id="XMLID_222_">
		<text id="XMLID_292_" transform="matrix(1 0 0 1 998.1852 689.3752)" font-family="'Arial-BoldMT'" font-size="11.2996px">Category 03</text>
	</g>
	<g id="XMLID_223_">
		<text id="XMLID_295_" transform="matrix(1 0 0 1 998.1852 656.1246)" font-family="'Arial-BoldMT'" font-size="11.2996px">Category 04</text>
	</g>
	<g id="XMLID_224_">
		<text id="XMLID_298_" transform="matrix(1 0 0 1 998.1852 623.8746)" font-family="'Arial-BoldMT'" font-size="11.2996px">Category 05</text>
	</g>
	<g id="XMLID_225_">
		<text id="XMLID_300_" transform="matrix(1 0 0 1 998.1852 590.624)" font-family="'Arial-BoldMT'" font-size="11.2996px">Category 06</text>
	</g>
	<g id="XMLID_226_">
		<text id="XMLID_302_" transform="matrix(1 0 0 1 998.1852 558.374)" font-family="'Arial-BoldMT'" font-size="11.2996px">Category 07</text>
	</g>
	<g id="XMLID_227_">
		<text id="XMLID_303_" transform="matrix(1 0 0 1 998.1852 525.1234)" font-family="'Arial-BoldMT'" font-size="11.2996px">Category 08</text>
	</g>
	<g id="XMLID_228_">
		<text id="XMLID_304_" transform="matrix(1 0 0 1 998.1852 492.8735)" font-family="'Arial-BoldMT'" font-size="11.2996px">Category 09</text>
	</g>
	<g id="XMLID_231_">
		<text id="XMLID_305_" transform="matrix(1 0 0 1 998.1852 462.3735)" font-family="'Arial-BoldMT'" font-size="11.2996px">Category 10</text>
	</g>
	<rect id="XMLID_86_" x="1068.6" y="772.3" fill="#F15A5A" width="69.7" height="20.8"/>
	<rect id="XMLID_178_" x="1068.6" y="739.6" fill="#E05455" width="102.4" height="20.8"/>
	<rect id="XMLID_180_" x="1068.6" y="706.9" fill="#CF4D4E" width="116.4" height="20.8"/>
	<rect id="XMLID_181_" x="1068.6" y="674.2" fill="#BE4748" width="126.4" height="20.8"/>
	<rect id="XMLID_183_" x="1068.6" y="641.5" fill="#A63E3F" width="146.4" height="20.8"/>
	<rect id="XMLID_205_" x="1068.6" y="608.8" fill="#8F3636" width="160.4" height="20.8"/>
	<rect id="XMLID_208_" x="1068.6" y="576.1" fill="#762C2D" width="180" height="20.8"/>
	<rect id="XMLID_211_" x="1068.6" y="543.4" fill="#642626" width="160.4" height="20.8"/>
	<rect id="XMLID_212_" x="1068.6" y="510.7" fill="#572121" width="194.2" height="20.8"/>
	<rect id="XMLID_215_" x="1068.6" y="477.9" fill="#441919" width="226.2" height="20.8"/>
	<rect id="XMLID_229_" x="1068.6" y="448" fill="#2D1313" width="245.4" height="20.8"/>
</g>
<g id="XMLID_233_">
	<rect id="XMLID_177_" x="997" y="815.5" fill="#8D3131" width="322.7" height="90"/>
	<rect id="XMLID_230_" x="1013" y="827.5" fill="#2D1313" width="27.4" height="53.2"/>
	<rect id="XMLID_232_" x="1013" y="847.5" fill="#FBB040" width="27.4" height="33.2"/>
	<rect id="XMLID_235_" x="1057" y="827.5" fill="#2D1313" width="27.4" height="53.2"/>
	<rect id="XMLID_234_" x="1057" y="861" fill="#FBB040" width="27.4" height="19.7"/>
	<rect id="XMLID_237_" x="1101" y="827.5" fill="#2D1313" width="27.4" height="53.2"/>
	<rect id="XMLID_236_" x="1101" y="874" fill="#FBB040" width="27.4" height="6.7"/>
	<rect id="XMLID_239_" x="1145" y="827.5" fill="#2D1313" width="27.4" height="53.2"/>
	<rect id="XMLID_238_" x="1145" y="866.7" fill="#FBB040" width="27.4" height="14"/>
	<rect id="XMLID_252_" x="1188.9" y="827.5" fill="#2D1313" width="27.4" height="53.2"/>
	<rect id="XMLID_240_" x="1188.9" y="854.5" fill="#FBB040" width="27.4" height="26.2"/>
	<rect id="XMLID_265_" x="1232.9" y="827.5" fill="#2D1313" width="27.4" height="53.2"/>
	<rect id="XMLID_253_" x="1232.9" y="849" fill="#FBB040" width="27.4" height="31.7"/>
	<rect id="XMLID_267_" x="1276.9" y="827.5" fill="#2D1313" width="27.4" height="53.2"/>
	<rect id="XMLID_266_" x="1276.9" y="835.7" fill="#FBB040" width="27.4" height="45"/>
	<g id="XMLID_241_">
		
			<text id="XMLID_306_" transform="matrix(1 0 0 1 1022.3518 894.6252)" fill="#FFFFFF" font-family="'Arial-BoldMT'" font-size="11.2996px">A</text>
	</g>
	<g id="XMLID_242_">
		
			<text id="XMLID_307_" transform="matrix(1 0 0 1 1066.6852 894.6252)" fill="#FFFFFF" font-family="'Arial-BoldMT'" font-size="11.2996px">B</text>
	</g>
	<g id="XMLID_243_">
		
			<text id="XMLID_308_" transform="matrix(1 0 0 1 1111.0186 894.6252)" fill="#FFFFFF" font-family="'Arial-BoldMT'" font-size="11.2996px">C</text>
	</g>
	<g id="XMLID_244_">
		
			<text id="XMLID_309_" transform="matrix(1 0 0 1 1155.3518 894.6252)" fill="#FFFFFF" font-family="'Arial-BoldMT'" font-size="11.2996px">D </text>
	</g>
	<g id="XMLID_245_">
		
			<text id="XMLID_310_" transform="matrix(1 0 0 1 1199.6852 894.6252)" fill="#FFFFFF" font-family="'Arial-BoldMT'" font-size="11.2996px">E</text>
	</g>
	<g id="XMLID_246_">
		
			<text id="XMLID_311_" transform="matrix(1 0 0 1 1243.0178 894.6252)" fill="#FFFFFF" font-family="'Arial-BoldMT'" font-size="11.2996px">F</text>
	</g>
	<g id="XMLID_247_">
		
			<text id="XMLID_312_" transform="matrix(1 0 0 1 1286.3506 894.6252)" fill="#FFFFFF" font-family="'Arial-BoldMT'" font-size="11.2996px">G</text>
	</g>
</g>
</svg>
